<?xml version="1.0" encoding="UTF-8" standalone="no"?>
<svg xmlns="http://www.w3.org/2000/svg" width="1200" height="630" viewBox="0 0 1200 630">
  <rect width="1200" height="630" fill="#1e40af"/>
  <circle cx="600" cy="315" r="250" fill="#3b82f6"/>
  <g fill="white">
    <!-- IITM Text -->
    <path d="M300 200 L300 400 M350 200 L350 400 M300 200 L350 200 M300 300 L350 300" stroke="white" stroke-width="20" fill="none"/>
    <path d="M380 200 L380 400 M430 200 L430 400 M380 200 L430 200" stroke="white" stroke-width="20" fill="none"/>
    <path d="M460 200 L460 400 M510 200 L560 400 M560 200 L510 400" stroke="white" stroke-width="20" fill="none"/>
    <path d="M590 200 L590 400 M590 200 L640 300 L590 400" stroke="white" stroke-width="20" fill="none"/>
    
    <!-- Scholar Hub Text -->
    <text x="600" y="480" font-family="Arial, sans-serif" font-size="60" font-weight="bold" text-anchor="middle">Scholar Hub</text>
    
    <!-- Tools for IITM Students -->
    <text x="600" y="550" font-family="Arial, sans-serif" font-size="30" text-anchor="middle">Tools for IITM Students</text>
  </g>
</svg>
